<?xml version="1.0" standalone="no"?>
<!DOCTYPE svg PUBLIC "-//W3C//DTD SVG 20010904//EN"
 "http://www.w3.org/TR/2001/REC-SVG-20010904/DTD/svg10.dtd">
<svg version="1.0" xmlns="http://www.w3.org/2000/svg"
 width="1920.000000pt" height="1920.000000pt" viewBox="0 0 1920.000000 1920.000000"
 preserveAspectRatio="xMidYMid meet">
<metadata>
Created by potrace 1.16, written by Peter Selinger 2001-2019
</metadata>
<g transform="translate(0.000000,1920.000000) scale(0.100000,-0.100000)"
fill="#000000" stroke="none">
<path d="M8795 18943 c-90 -6 -245 -25 -325 -39 -46 -9 -99 -14 -117 -11 -19
3 -38 1 -45 -6 -7 -7 -38 -12 -68 -11 -30 0 -70 -6 -89 -13 -18 -7 -42 -13
-53 -13 -45 0 -329 -72 -531 -135 -60 -19 -115 -31 -123 -28 -7 3 -16 -2 -20
-10 -4 -10 -18 -16 -42 -16 -21 0 -73 -15 -119 -35 -44 -20 -89 -36 -100 -36
-10 0 -31 -7 -47 -15 -15 -8 -37 -15 -47 -15 -11 0 -27 -4 -37 -9 -9 -5 -32
-15 -49 -21 -18 -7 -33 -19 -33 -26 0 -8 -9 -14 -20 -14 -12 0 -38 -9 -60 -20
-22 -11 -48 -20 -60 -20 -11 0 -20 -4 -20 -9 0 -5 -12 -14 -27 -20 -16 -7 -59
-29 -98 -50 -38 -21 -127 -67 -196 -102 -70 -36 -134 -72 -142 -80 -9 -8 -57
-36 -108 -64 -50 -27 -114 -71 -140 -97 -26 -27 -53 -48 -60 -48 -6 0 -25 -11
-41 -25 -17 -14 -49 -35 -72 -47 -22 -11 -66 -42 -96 -67 -30 -26 -71 -57 -90
-70 -19 -14 -53 -42 -75 -64 -22 -21 -90 -83 -151 -138 -110 -97 -410 -415
-468 -494 -16 -22 -43 -53 -59 -70 -73 -75 -167 -180 -167 -187 0 -4 -24 -35
-53 -70 -61 -72 -123 -162 -156 -228 -13 -25 -36 -64 -52 -88 -16 -24 -29 -45
-29 -48 0 -2 -18 -33 -40 -68 -22 -35 -40 -66 -40 -69 0 -3 -16 -29 -36 -58
-47 -70 -94 -173 -126 -279 -6 -19 -19 -47 -29 -62 -11 -14 -19 -30 -19 -35 0
-4 -9 -19 -20 -33 -11 -14 -20 -35 -20 -46 0 -12 -6 -27 -14 -33 -7 -6 -16
-26 -20 -43 -4 -18 -15 -51 -25 -73 -10 -22 -26 -62 -36 -90 -10 -27 -22 -55
-26 -61 -19 -24 -102 -284 -130 -404 -4 -19 -15 -62 -24 -95 -9 -33 -19 -73
-21 -90 -1 -16 -7 -50 -13 -75 -56 -262 -79 -475 -88 -830 -7 -296 15 -575 62
-790 7 -36 17 -99 21 -140 3 -41 12 -90 20 -109 8 -18 14 -45 14 -59 0 -36 41
-183 79 -287 10 -27 24 -69 30 -93 7 -23 16 -40 21 -37 6 4 10 -7 10 -24 0
-32 32 -125 60 -175 10 -17 23 -53 30 -80 9 -30 20 -50 31 -53 10 -3 20 -19
23 -38 4 -18 18 -54 31 -80 14 -25 25 -54 25 -63 0 -16 39 -102 51 -112 3 -3
9 -18 13 -35 4 -16 18 -46 30 -65 52 -80 62 -97 78 -135 10 -25 22 -39 32 -39
9 1 16 -3 16 -9 0 -5 13 -31 28 -56 16 -25 31 -57 35 -71 7 -30 179 -288 310
-465 61 -83 73 -98 121 -147 20 -20 36 -40 36 -45 0 -4 29 -40 64 -80 36 -40
78 -92 94 -115 36 -51 145 -160 158 -157 21 4 28 -2 14 -11 -13 -9 -10 -14 15
-35 35 -29 53 -33 35 -7 -8 9 5 -1 28 -23 22 -22 59 -55 81 -74 23 -18 41 -39
41 -45 0 -7 16 -27 35 -46 19 -19 35 -39 35 -44 0 -11 43 -51 148 -139 34 -28
100 -84 145 -123 107 -91 134 -110 178 -118 26 -5 43 -16 60 -41 13 -19 34
-39 46 -44 13 -6 23 -17 23 -24 0 -19 32 -47 53 -47 9 0 17 -6 17 -12 1 -17
69 -68 91 -68 9 0 19 -6 22 -14 3 -7 17 -16 32 -20 15 -4 38 -20 52 -36 14
-17 32 -30 41 -30 20 -1 54 -25 46 -33 -9 -9 203 -140 215 -132 5 2 19 -7 31
-20 13 -14 29 -25 35 -25 6 0 26 -13 44 -29 18 -16 78 -53 134 -83 56 -29 113
-62 127 -73 36 -30 78 -55 90 -55 5 0 39 -20 74 -44 35 -24 85 -52 112 -62 27
-10 63 -28 79 -41 17 -12 65 -38 105 -58 41 -20 118 -59 170 -86 193 -103 471
-239 715 -349 375 -169 439 -204 559 -303 167 -138 287 -359 311 -577 4 -36
13 -78 20 -95 25 -57 37 -142 24 -167 -8 -15 -12 -76 -12 -186 0 -180 -1 -182
-64 -208 -18 -8 -40 -25 -48 -38 -17 -25 -19 -22 133 -165 27 -25 122 -71 147
-71 8 0 19 -8 24 -17 6 -10 11 -12 11 -5 0 17 29 15 36 -3 4 -8 10 -12 15 -9
10 6 77 -13 96 -28 9 -8 9 -14 0 -31 -7 -12 -13 -24 -14 -26 -1 -1 -7 0 -13 4
-8 5 -6 11 6 19 40 30 -45 61 -87 32 -22 -14 -28 -13 -67 4 -23 11 -49 17 -56
14 -8 -3 -17 2 -20 13 -3 10 -16 19 -30 19 -13 1 -32 10 -43 20 -11 11 -54 52
-97 92 l-77 73 -94 -98 c-64 -66 -106 -119 -127 -163 -31 -60 -33 -72 -33
-165 0 -85 4 -109 25 -160 34 -80 115 -202 139 -210 11 -3 36 -26 57 -50 20
-25 43 -45 50 -45 7 0 23 -10 34 -22 16 -17 20 -19 15 -5 -6 14 -3 16 16 13
13 -3 27 -5 30 -5 4 -1 9 -8 13 -16 4 -12 2 -13 -14 -3 -15 10 -22 9 -37 -4
-18 -16 -73 -20 -73 -5 0 4 -6 7 -12 7 -7 0 -24 16 -37 35 -13 19 -31 35 -40
35 -22 -1 -78 -78 -102 -140 -55 -146 -25 -310 89 -476 112 -166 312 -298 514
-340 71 -15 133 -49 192 -106 17 -15 40 -28 53 -28 14 0 23 -6 23 -16 0 -9 6
-14 12 -12 7 3 29 -13 50 -34 20 -21 44 -38 52 -38 9 0 16 -4 16 -10 0 -5 15
-10 33 -10 41 0 101 48 91 74 -4 12 0 16 15 16 12 0 21 5 21 10 0 6 5 10 10
10 6 0 20 9 32 20 12 11 29 20 37 20 18 0 67 40 131 105 39 41 117 95 159 110
25 10 94 40 154 68 79 37 109 56 113 72 3 12 28 44 55 71 57 57 64 79 19 69
-16 -4 -30 -4 -30 -1 0 4 19 25 43 49 23 23 49 51 58 62 16 20 142 115 153
115 3 0 31 -25 62 -55 32 -30 61 -55 65 -55 12 0 45 -74 41 -92 -2 -10 -14
-21 -28 -24 -13 -3 -24 -9 -24 -14 0 -4 -17 -14 -37 -23 -21 -9 -45 -21 -53
-26 -8 -6 -41 -22 -72 -37 -32 -15 -58 -30 -58 -34 0 -3 -15 -11 -34 -18 -18
-7 -41 -21 -51 -32 -10 -11 -22 -20 -27 -20 -16 0 -119 -70 -156 -106 -19 -19
-42 -34 -50 -34 -8 0 -25 -10 -37 -22 -12 -13 -41 -34 -65 -48 -23 -14 -62
-44 -87 -67 -24 -24 -48 -43 -53 -43 -5 0 -17 -11 -27 -23 -10 -13 -28 -29
-41 -36 -12 -6 -22 -18 -22 -25 0 -8 -30 -42 -67 -76 -66 -62 -112 -116 -167
-197 -16 -24 -32 -43 -37 -43 -4 0 -14 -3 -22 -6 -10 -4 -22 10 -37 43 -26 54
-109 183 -119 183 -3 0 -26 19 -51 43 -91 85 -299 237 -325 237 -11 0 -107 61
-125 80 -14 15 -157 105 -228 144 -19 10 -63 40 -99 67 -35 27 -69 49 -76 49
-15 0 -77 57 -77 71 0 5 -3 8 -7 7 -8 -3 -31 11 -130 75 l-62 41 16 29 c16 31
119 137 133 137 11 0 50 54 50 68 0 19 -41 25 -59 8 -10 -9 -21 -16 -25 -16
-23 0 -166 -126 -166 -146 0 -7 -6 -14 -12 -17 -7 -3 -22 -21 -32 -41 l-20
-37 60 -54 c32 -30 63 -54 67 -55 4 0 20 -11 34 -25 15 -13 40 -29 55 -36 31
-13 34 -23 13 -59 -8 -14 -14 -39 -15 -57 0 -17 -4 -33 -10 -35 -16 -5 -43
-174 -55 -353 -2 -22 1 -47 6 -57 5 -9 5 -18 0 -20 -5 -2 -11 -37 -15 -78 -3
-41 -10 -88 -15 -105 -5 -16 -17 -102 -25 -190 -9 -88 -21 -180 -26 -205 -5
-25 -16 -121 -25 -215 -9 -93 -23 -225 -31 -292 -8 -66 -11 -128 -8 -137 3 -8
1 -31 -6 -50 -6 -20 -13 -50 -15 -68 -3 -18 -10 -55 -17 -83 -12 -53 -17 -530
-5 -617 3 -25 15 -64 26 -86 22 -42 74 -87 90 -77 5 3 13 1 16 -5 9 -14 281
-6 278 8 -1 5 17 13 39 16 23 4 48 12 55 18 10 8 13 1 14 -38 1 -113 7 -252
13 -294 18 -143 29 -199 37 -194 5 3 9 -1 9 -10 0 -8 -5 -16 -11 -18 -9 -3 -9
-10 1 -27 7 -14 14 -75 16 -140 7 -182 18 -249 53 -322 17 -36 31 -68 31 -71
0 -10 156 -165 188 -187 55 -38 89 -46 322 -71 58 -7 112 -12 120 -11 8 0 56
0 105 1 104 1 189 20 217 49 10 12 24 21 30 21 6 0 19 7 29 16 17 15 21 15 52
-5 19 -12 53 -22 76 -24 22 -1 41 -4 41 -7 0 -10 346 -1 423 11 92 14 190 42
181 52 -4 4 -1 7 7 7 29 0 125 57 165 97 23 23 45 56 49 74 6 25 11 30 29 25
17 -4 24 1 36 27 8 18 15 39 16 48 1 9 5 23 10 30 14 21 14 452 0 461 -6 4
-20 8 -31 8 -29 0 -41 50 -35 140 3 41 4 131 3 200 -7 339 -7 338 16 270 10
-30 24 -80 31 -110 13 -57 44 -118 57 -111 13 7 46 -47 47 -78 1 -17 7 -33 14
-36 8 -3 10 0 6 7 -4 7 -3 8 4 4 6 -4 9 -13 6 -21 -6 -15 5 -19 84 -30 37 -5
50 -1 97 30 56 35 70 66 44 92 -8 8 2 16 35 28 51 20 108 70 132 118 33 63 30
164 -10 307 -65 239 -63 226 -80 375 -9 72 -23 164 -31 205 -8 41 -26 146 -40
234 -26 167 -64 338 -120 546 -18 69 -36 141 -40 160 -17 94 -89 368 -101 388
-8 12 -12 22 -10 22 3 0 0 15 -6 33 -5 17 -14 50 -19 72 -18 88 -41 172 -54
200 -8 17 -21 56 -30 87 -18 66 -12 84 39 112 17 9 51 34 76 55 l45 39 -26 36
c-55 77 -210 233 -254 255 -25 12 -45 26 -45 31 0 4 -10 6 -22 4 l-23 -5 22
10 c12 5 26 19 32 30 14 25 14 34 1 26 -20 -12 -9 11 25 54 25 31 35 54 35 78
0 19 -4 32 -9 29 -5 -3 -9 4 -9 17 -2 126 -11 196 -30 233 -24 47 -70 105 -81
101 -4 -1 -26 14 -49 34 l-43 37 44 13 c37 10 43 16 41 36 -4 42 18 73 53 73
32 0 32 0 21 33 -6 17 -14 37 -18 42 -4 6 -8 28 -8 49 -1 22 -7 43 -13 46 -7
5 -5 9 5 13 22 9 21 66 -1 82 -19 14 -67 0 -57 -16 3 -5 1 -9 -4 -9 -12 0 -23
25 -28 64 -2 16 -12 35 -21 43 -42 33 -121 73 -164 83 l-47 12 -7 56 c-3 31
-8 77 -9 102 -2 25 -7 64 -11 87 -5 26 -4 43 2 43 11 0 43 -64 43 -85 0 -18
11 -19 46 -3 23 11 25 16 20 48 -3 19 -13 42 -23 50 -10 8 -19 24 -20 35 0 11
-5 38 -9 60 -7 37 -8 90 -1 140 1 16 -5 21 -30 23 -24 2 -33 -1 -33 -12 0 -8
-3 -17 -8 -20 -12 -7 -7 155 6 194 6 19 14 58 16 85 2 28 6 57 9 65 3 8 15 58
28 110 30 129 115 369 140 396 11 11 24 37 29 56 6 19 27 57 47 85 45 60 77
114 78 128 0 6 12 22 25 36 14 14 51 59 82 100 55 72 202 220 341 346 37 33
67 65 67 72 0 6 5 11 11 11 13 0 119 87 132 107 4 7 13 13 20 13 7 1 30 19 52
41 22 23 69 61 105 86 69 47 93 64 180 129 30 23 69 48 86 57 18 9 45 30 60
47 16 17 54 47 84 67 30 21 99 80 153 132 54 52 105 96 115 97 9 2 22 10 27
20 25 41 48 64 65 64 10 0 47 26 82 58 34 31 76 69 93 84 16 16 33 28 37 28 4
0 9 8 12 18 3 9 32 42 63 72 129 124 214 214 240 256 15 24 35 46 44 49 21 7
61 63 54 75 -3 6 -2 10 3 10 5 0 42 39 81 88 40 48 99 119 132 157 147 173
215 263 341 450 170 252 241 373 235 397 -3 10 -2 16 3 13 13 -8 37 28 64 102
15 39 31 73 36 75 10 4 111 215 108 226 -2 4 5 24 14 43 64 133 98 215 98 238
0 16 9 36 20 46 11 10 32 57 47 104 14 47 30 91 34 96 3 6 10 25 14 44 4 18
17 56 30 85 12 28 26 74 30 103 4 29 15 61 25 73 20 23 58 152 71 245 4 33 15
83 24 110 8 28 15 64 15 82 0 18 4 42 9 55 13 34 32 142 42 238 4 47 13 121
18 165 16 123 24 566 12 685 -5 58 -7 117 -4 132 6 32 -13 28 273 58 311 32
372 36 441 28 171 -20 197 -25 236 -46 23 -12 49 -22 57 -22 25 0 30 -15 55
-167 5 -28 11 -55 14 -60 3 -4 8 -91 11 -193 4 -102 9 -197 10 -211 4 -25 1
-27 -41 -33 -25 -3 -69 -6 -97 -6 -74 0 -174 -35 -215 -76 -28 -29 -32 -39
-27 -65 5 -27 2 -32 -28 -44 -20 -8 -36 -24 -40 -37 -11 -44 -6 -402 8 -478
32 -180 118 -281 266 -314 50 -11 133 -14 353 -13 224 2 287 -1 287 -10 0 -7
3 -13 8 -13 4 0 8 -19 9 -42 6 -171 16 -218 60 -290 17 -28 31 -38 51 -40 15
-1 45 -2 67 -4 26 -1 58 6 91 22 62 29 89 75 81 135 -3 21 -1 55 3 75 8 36
-10 125 -32 151 -7 9 2 15 34 23 24 6 71 22 105 36 34 13 66 24 72 24 7 0 45
16 85 35 87 41 155 107 193 184 31 66 41 185 24 276 -7 33 -16 108 -21 166 -5
59 -16 124 -25 145 -9 22 -12 35 -7 29 12 -12 57 -127 67 -170 12 -47 10 -322
-2 -402 -14 -97 -9 -123 28 -123 36 0 42 11 46 85 2 33 7 91 11 130 5 38 7 83
6 100 -1 16 -3 64 -4 105 -2 72 -21 174 -40 208 -5 10 -21 45 -36 79 -30 70
-43 80 -72 52 -22 -20 -42 -25 -42 -10 0 5 9 11 20 14 26 7 26 29 0 45 -22 13
-60 1 -60 -19 0 -5 -11 -2 -24 6 -13 9 -63 21 -110 28 -74 10 -87 14 -90 32
-2 11 -14 108 -25 215 -12 107 -32 262 -46 344 -14 83 -25 182 -26 220 -1 187
-57 385 -149 534 -21 33 -25 34 -76 15 -11 -4 -37 54 -33 73 4 24 -5 36 -53
69 -29 19 -79 55 -111 79 -32 24 -73 50 -90 56 -18 7 -65 25 -105 41 -127 51
-180 59 -491 74 -162 8 -298 12 -301 10 -3 -2 -100 -6 -215 -9 -116 -4 -248
-11 -295 -16 -47 -6 -125 -11 -174 -13 l-89 -2 -19 55 c-10 30 -16 60 -14 67
6 15 -19 68 -54 113 -15 19 -35 58 -43 85 -23 77 -46 125 -62 132 -8 3 -15 12
-15 20 0 19 -28 70 -56 103 -12 14 -25 36 -29 50 -13 43 -85 169 -107 184 -11
8 -30 37 -43 64 -13 27 -32 56 -44 64 -20 14 -20 16 -4 30 21 19 118 68 133
68 5 0 10 -6 10 -13 0 -20 85 -192 122 -245 33 -48 146 -172 157 -172 4 0 7 9
7 19 0 11 -4 17 -8 15 -11 -7 -27 39 -33 94 -2 26 -7 59 -9 75 -3 19 0 27 10
27 8 0 14 -10 15 -22 0 -13 2 -32 5 -43 2 -11 6 -32 8 -47 2 -15 11 -38 19
-52 21 -32 30 -85 18 -100 -7 -9 -4 -22 12 -44 27 -39 37 -40 37 -6 0 23 3 25
23 20 125 -39 199 1 199 107 0 41 -10 72 -60 172 -73 147 -198 338 -274 420
-38 41 -57 72 -62 97 -7 41 -11 39 89 58 33 6 71 19 85 29 25 18 50 20 81 7 9
-4 29 4 50 19 18 14 63 47 99 73 94 68 110 88 110 134 0 82 -53 146 -141 172
-44 14 -59 14 -117 1 -89 -19 -140 -37 -247 -91 -75 -37 -194 -120 -160 -112
18 5 59 -35 78 -75 20 -44 20 -47 7 -47 -6 0 -13 8 -16 18 -25 73 -57 103
-115 104 -26 1 -28 3 -13 11 17 10 17 11 -1 18 -11 4 -41 8 -67 8 -36 1 -48 5
-48 16 0 54 -95 256 -177 375 -92 133 -93 135 -93 112 0 -29 -11 -53 -21 -46
-5 3 -4 14 2 26 6 12 7 18 1 14 -12 -7 -22 16 -22 49 0 17 -11 28 -43 44 -53
26 -94 27 -120 4 -11 -10 -17 -12 -13 -5 4 6 2 12 -3 12 -6 0 -11 -4 -11 -10
0 -5 -5 -10 -11 -10 -6 0 -9 7 -5 15 5 13 2 14 -15 4 -30 -16 -59 -86 -59
-147 0 -103 130 -331 270 -474 l76 -77 -45 -44 c-25 -24 -59 -49 -75 -56 -28
-11 -31 -10 -72 30 -23 22 -44 40 -47 38 -3 -2 -16 12 -29 31 -13 19 -38 42
-55 50 -18 8 -33 20 -33 25 0 17 -109 124 -180 176 -36 27 -75 57 -88 67 -13
9 -57 48 -100 85 -42 37 -100 83 -129 103 -28 19 -55 39 -59 45 -10 18 -112
79 -155 94 -23 8 -54 26 -71 40 -16 14 -36 25 -43 25 -8 0 -19 9 -26 21 -7 14
-17 19 -31 16 -14 -4 -29 6 -55 33 -19 22 -61 52 -93 69 -33 16 -72 38 -87 49
-15 11 -53 32 -83 47 -30 15 -65 36 -78 46 -13 10 -36 20 -52 24 -15 3 -77 33
-137 66 -59 32 -117 59 -128 59 -11 0 -38 11 -60 25 -61 38 -155 81 -226 105
-35 12 -74 28 -86 36 -12 8 -27 14 -33 14 -6 0 -36 11 -66 25 -30 14 -63 25
-72 25 -10 0 -22 4 -28 9 -14 14 -116 51 -140 51 -11 0 -25 5 -31 11 -5 5 -50
16 -99 24 -115 17 -142 24 -147 39 -3 7 -31 18 -63 26 -33 7 -92 21 -133 31
-41 11 -83 19 -93 19 -10 0 -29 6 -41 14 -35 23 -293 68 -397 70 -25 1 -47 3
-50 6 -16 17 -204 40 -495 60 -88 6 -187 15 -221 21 -52 8 -573 9 -689 2z
m880 -114 c138 -11 302 -30 365 -41 63 -11 129 -22 145 -23 59 -4 385 -76 566
-125 20 -6 47 -10 60 -10 13 0 71 -16 128 -35 57 -19 110 -35 117 -35 18 0
388 -123 434 -143 19 -9 89 -37 155 -62 66 -25 156 -63 200 -85 44 -22 104
-47 133 -55 28 -9 52 -20 52 -24 0 -5 51 -34 113 -65 130 -66 258 -136 278
-152 8 -7 57 -35 109 -64 86 -46 127 -73 285 -186 237 -169 578 -445 661 -535
17 -19 50 -51 73 -73 l42 -38 -28 -15 c-15 -8 -43 -26 -60 -39 l-33 -25 -2 23
c-1 13 0 43 1 69 2 41 0 46 -25 58 -32 14 -38 8 -54 -51 -7 -24 -7 -45 0 -63
5 -14 10 -42 10 -61 0 -20 5 -44 11 -55 8 -15 6 -31 -7 -64 -19 -51 -14 -91
17 -141 21 -34 48 -46 130 -59 30 -4 52 -22 114 -87 80 -83 92 -88 119 -46 7
13 -1 28 -37 68 -26 29 -45 55 -43 58 3 3 30 -16 61 -42 30 -26 88 -64 127
-83 60 -29 81 -34 119 -31 50 5 46 8 103 -85 l18 -29 20 21 19 22 -36 50 c-20
28 -34 56 -32 62 4 13 72 -85 107 -153 13 -25 42 -73 66 -108 24 -34 46 -72
49 -82 4 -11 11 -20 16 -20 6 0 7 -4 4 -10 -3 -5 13 -37 36 -71 23 -34 43 -69
43 -78 1 -9 10 -33 21 -53 20 -40 16 -54 -10 -44 -17 6 -35 45 -41 90 -2 16
-10 38 -17 50 -8 11 -38 66 -67 121 -29 55 -58 107 -65 115 -7 8 -23 35 -35
59 l-22 45 -14 -33 c-12 -28 -12 -36 3 -59 10 -15 20 -29 23 -32 3 -3 12 -19
21 -35 8 -17 21 -39 27 -50 6 -11 43 -85 81 -165 l69 -145 -45 -53 c-86 -101
-137 -289 -149 -547 -8 -174 -8 -155 4 -270 8 -64 20 -110 42 -159 17 -37 29
-74 27 -80 -7 -16 31 -127 49 -147 8 -9 23 -39 33 -67 51 -138 250 -306 364
-306 l37 -1 1 -50 c0 -27 2 -115 3 -195 3 -94 0 -150 -7 -158 -8 -10 -8 -19 1
-32 6 -11 8 -21 3 -24 -7 -5 -15 -82 -27 -271 -2 -27 -5 -66 -8 -85 -19 -141
-28 -201 -36 -240 -22 -104 -81 -349 -95 -395 -8 -27 -21 -73 -29 -101 -8 -28
-21 -65 -30 -82 -9 -17 -16 -42 -16 -55 0 -12 -4 -27 -9 -32 -10 -10 -72 -176
-94 -250 -16 -51 -76 -175 -86 -175 -14 0 -62 -126 -55 -143 4 -11 1 -17 -7
-17 -18 -1 -99 -127 -99 -154 0 -12 -9 -27 -19 -33 -10 -7 -31 -38 -46 -70
-16 -32 -38 -71 -50 -88 -13 -16 -26 -40 -29 -52 -4 -12 -32 -58 -62 -102 -29
-44 -54 -84 -54 -89 0 -14 -58 -104 -107 -166 -23 -30 -51 -72 -62 -94 -11
-22 -25 -43 -31 -47 -5 -3 -43 -57 -84 -119 -41 -63 -90 -127 -110 -142 -20
-16 -36 -35 -36 -41 0 -7 -23 -39 -51 -70 -108 -122 -235 -260 -279 -303 -26
-25 -49 -53 -53 -62 -3 -10 -13 -18 -21 -18 -8 0 -24 -15 -35 -33 -21 -34
-121 -132 -132 -129 -4 1 -33 -28 -65 -63 -33 -36 -63 -65 -67 -65 -5 0 -21
-12 -36 -27 -15 -16 -38 -36 -52 -46 -13 -10 -46 -39 -74 -65 -27 -26 -83 -70
-124 -97 -88 -59 -191 -151 -191 -171 0 -8 -25 -26 -55 -41 -30 -15 -55 -34
-55 -43 -1 -8 -46 -44 -101 -80 -56 -36 -109 -75 -119 -88 -10 -12 -23 -22
-30 -22 -14 0 -73 -47 -158 -127 -36 -35 -71 -63 -77 -63 -5 0 -64 -52 -130
-116 -66 -63 -132 -123 -147 -133 -15 -9 -57 -50 -93 -91 -37 -41 -72 -77 -78
-79 -15 -6 -67 -59 -98 -101 -67 -91 -147 -209 -169 -250 -14 -25 -35 -58 -47
-73 -13 -16 -23 -35 -23 -42 0 -7 -10 -26 -23 -42 -39 -47 -67 -106 -118 -249
-18 -49 -36 -107 -41 -129 -48 -216 -80 -497 -60 -517 6 -6 8 -24 5 -40 -8
-42 17 -140 34 -134 7 3 13 2 14 -2 6 -89 20 -206 34 -298 l7 -40 -154 2 c-84
1 -234 7 -333 13 -99 5 -241 9 -316 7 l-137 -2 -6 44 c-3 25 -22 185 -41 356
-52 462 -96 819 -103 836 -3 8 -7 29 -8 45 -1 17 -5 48 -7 70 -3 22 -9 70 -12
108 -4 37 -11 67 -16 67 -5 0 -9 -4 -9 -10 0 -5 -6 -10 -13 -10 -19 0 -18 -13
3 -190 44 -352 151 -1312 148 -1316 -2 -1 -48 -9 -103 -18 -127 -19 -263 -30
-250 -19 14 11 20 145 20 403 -1 188 -4 227 -23 310 -46 190 -81 272 -172 395
-77 105 -199 206 -345 287 -16 9 -66 37 -110 62 -44 24 -118 61 -165 81 -47
21 -117 53 -156 71 -39 19 -76 34 -81 34 -6 0 -30 11 -54 24 -24 13 -91 43
-149 67 -58 23 -117 50 -132 61 -15 10 -44 24 -65 32 -21 7 -99 43 -173 80
-74 36 -140 66 -147 66 -6 0 -16 6 -20 14 -4 8 -48 33 -98 57 -49 23 -104 53
-121 66 -17 13 -37 23 -45 23 -8 0 -44 19 -80 43 -63 41 -92 56 -171 90 -21 9
-38 22 -38 29 0 13 -109 78 -129 78 -6 0 -30 14 -53 30 -22 16 -47 30 -53 30
-7 0 -35 19 -61 43 -27 24 -110 83 -184 131 -438 286 -929 706 -1271 1086
-129 144 -282 326 -321 382 -18 25 -71 97 -118 160 -100 133 -220 304 -280
403 -100 163 -357 653 -394 752 -8 21 -33 83 -55 137 -23 55 -52 132 -65 170
-53 159 -85 263 -91 301 -4 22 -18 83 -31 135 -37 153 -63 338 -89 635 -11
124 -5 526 10 665 8 74 17 162 20 195 3 33 10 76 15 95 12 47 40 196 44 240 4
35 10 63 72 305 50 194 79 296 96 335 8 19 24 65 36 101 64 199 195 490 319
709 78 137 217 355 242 381 17 17 31 35 31 41 0 5 16 28 35 51 33 40 53 65
145 184 22 29 66 81 98 115 32 35 71 81 87 103 40 55 459 472 575 572 127 111
383 303 488 368 9 6 43 27 76 48 33 21 76 47 96 57 20 10 42 26 49 34 8 9 20
16 28 16 8 0 29 11 46 24 18 13 43 27 57 31 14 4 59 26 100 47 95 50 364 172
450 204 36 14 103 40 150 58 140 56 505 163 670 197 30 6 60 15 65 18 6 4 26
8 45 9 19 2 73 9 120 18 207 37 588 73 871 82 272 9 326 7 644 -19z m-5599
-3557 c-8 -26 -20 -65 -25 -87 -5 -22 -21 -85 -35 -140 -37 -140 -67 -280 -76
-345 -4 -30 -17 -102 -29 -160 -12 -57 -24 -129 -26 -160 -2 -30 -9 -86 -15
-125 -10 -61 -14 -138 -20 -485 l-2 -75 -12 40 c-12 41 -12 463 1 495 3 8 7
38 9 65 6 95 13 144 23 163 6 11 10 39 9 63 -2 65 9 141 32 208 11 33 20 71
20 83 -1 34 50 235 73 293 11 28 26 77 34 110 25 104 26 109 37 121 18 20 19
-11 2 -64z m11877 -134 c10 -5 14 -14 11 -20 -4 -6 1 -17 11 -25 11 -7 13 -13
7 -13 -22 0 -12 -27 13 -38 35 -16 55 -15 55 2 0 8 3 21 6 29 3 10 -2 18 -16
22 -12 4 -20 9 -17 11 7 7 121 -36 146 -55 23 -17 23 -21 11 -50 -10 -24 -10
-35 -1 -44 14 -14 14 -30 0 -21 -6 3 -14 2 -18 -4 -9 -15 -51 -3 -51 14 0 8
-6 14 -13 14 -7 0 -32 16 -55 35 -22 20 -44 35 -49 34 -4 -1 -15 0 -23 4 -44
16 -86 27 -106 27 -13 0 -24 4 -24 9 0 4 -11 6 -25 3 -16 -3 -25 0 -25 8 0 13
39 11 130 -5 l35 -6 -24 20 c-13 12 -31 21 -40 21 -24 0 -30 8 -24 30 4 15 11
18 37 13 17 -3 39 -10 49 -15z m432 -572 c5 -22 10 -27 25 -23 24 6 26 3 34
-53 3 -25 3 -38 -1 -30 -3 8 -12 21 -20 28 -11 11 -13 9 -13 -16 0 -32 38 -90
41 -62 1 8 5 -1 9 -20 4 -19 10 -47 14 -61 7 -23 3 -29 -24 -42 -23 -12 -32
-13 -35 -4 -12 41 -17 49 -29 44 -10 -4 -16 16 -25 80 -12 81 -9 127 4 67 17
-83 24 -86 19 -9 -3 44 -12 99 -20 123 -8 23 -14 48 -13 55 1 16 26 -41 34
-77z m55 -436 c0 -33 -4 -60 -10 -60 -15 0 -12 -16 6 -34 21 -21 34 -20 34 3
0 11 4 23 10 26 6 3 7 -1 4 -10 -4 -8 -1 -21 5 -29 7 -8 9 -31 5 -60 l-7 -46
-52 0 c-60 0 -65 6 -65 76 0 37 3 44 20 44 15 0 20 7 20 24 0 14 4 27 9 30 5
3 6 26 3 51 -3 30 -1 45 7 45 7 0 11 -22 11 -60z m-6778 -8717 c17 -15 19 -15
38 2 16 14 28 16 67 10 26 -4 80 -7 119 -6 49 1 89 -4 126 -17 32 -11 78 -19
111 -18 43 1 53 -2 45 -11 -8 -10 -6 -13 6 -13 9 0 16 5 16 10 0 16 50 12 66
-5 9 -8 30 -15 47 -15 29 1 30 2 15 14 -16 12 -13 13 20 10 96 -10 120 -14
147 -24 15 -6 37 -8 48 -4 20 6 20 7 2 20 -14 11 -15 14 -4 14 8 0 24 -7 35
-15 22 -16 54 -20 54 -5 0 5 13 7 32 3 21 -4 29 -3 25 4 -8 13 86 38 103 28
22 -13 7 -24 -87 -60 -75 -28 -110 -36 -148 -34 -76 4 -178 4 -440 0 -196 -3
-252 -1 -308 13 -84 20 -217 87 -217 110 0 13 64 5 82 -11z m1617 -395 c5 -29
19 -87 30 -128 34 -126 30 -134 -74 -144 -32 -3 -60 -8 -62 -10 -3 -2 -9 -21
-13 -41 -7 -31 -5 -41 11 -58 17 -18 21 -19 45 -7 37 20 132 17 147 -5 7 -9
32 -94 55 -188 46 -189 53 -218 112 -487 22 -102 50 -231 63 -287 l24 -102
-31 23 c-17 12 -37 22 -43 20 -7 -1 -17 -2 -22 -3 -4 0 -8 -19 -8 -42 0 -22
-5 -45 -12 -52 -6 -6 -11 -19 -11 -29 0 -10 -7 -18 -16 -18 -10 0 -2 -13 23
-36 39 -37 81 -65 69 -46 -4 6 1 15 10 20 9 5 18 24 20 43 11 110 19 121 27
42 4 -32 20 -127 36 -212 17 -85 35 -200 41 -255 18 -173 30 -233 70 -331 5
-11 12 -45 16 -75 17 -130 3 -165 -85 -213 -42 -24 -66 -29 -125 -30 -97 -3
-115 13 -130 107 -4 21 -9 43 -13 49 -4 6 -8 24 -10 40 -2 15 -8 38 -14 49 -6
12 -21 58 -34 104 -20 79 -21 84 -4 84 11 0 19 9 21 23 2 13 16 28 35 38 18 9
40 22 48 29 8 7 22 10 30 6 12 -4 15 4 15 43 0 68 -7 83 -32 70 -14 -7 -23 -7
-33 1 -10 8 -20 4 -41 -18 -16 -16 -39 -34 -52 -41 -12 -6 -22 -18 -22 -26 0
-8 -4 -15 -9 -15 -15 0 -31 171 -36 400 -3 124 -8 252 -10 285 -2 33 -6 108
-10 167 l-7 108 34 -6 c18 -4 39 -11 46 -17 16 -13 57 24 71 63 8 24 6 29 -11
33 -11 3 -17 10 -13 17 4 7 -6 11 -32 11 -96 1 -100 2 -116 28 -8 14 -18 46
-22 70 -4 24 -16 59 -27 77 -18 31 -25 34 -65 34 -86 0 -113 -37 -113 -156 0
-77 22 -269 41 -354 6 -25 28 -135 49 -245 21 -110 46 -231 55 -270 15 -62 17
-152 16 -813 0 -409 -3 -752 -6 -763 -5 -14 -12 -18 -26 -14 -13 4 -19 2 -19
-9 0 -9 -9 -25 -20 -36 -11 -11 -20 -24 -20 -29 0 -5 -7 -12 -16 -15 -13 -5
-15 -14 -9 -44 13 -68 40 -81 68 -32 22 37 47 40 47 6 0 -14 -4 -28 -10 -31
-5 -3 -10 -14 -10 -24 0 -27 -48 -67 -120 -100 -67 -31 -191 -52 -395 -66 -93
-7 -210 6 -250 28 l-22 12 23 70 c32 99 32 205 0 265 -54 104 -183 108 -260 7
-23 -30 -26 -43 -26 -109 0 -62 5 -87 30 -142 17 -36 39 -75 50 -86 11 -11 20
-24 20 -29 0 -5 -26 -19 -57 -31 -121 -46 -435 -32 -590 26 l-41 16 19 32 c11
18 30 38 43 44 13 6 27 20 31 31 3 12 11 21 16 21 16 0 10 15 -22 59 -26 37
-32 41 -46 29 -9 -7 -19 -12 -22 -10 -3 2 -8 -6 -11 -17 -3 -12 -18 -35 -34
-51 -25 -27 -28 -36 -23 -73 l5 -42 -44 50 c-61 68 -102 155 -113 240 -13 89
-34 311 -34 348 0 15 -4 27 -10 27 -5 0 -4 7 3 15 9 11 10 18 1 28 -6 8 -8 16
-5 19 3 3 0 41 -5 84 -6 44 -13 115 -16 159 -3 44 -8 87 -11 96 -5 17 6 21 95
35 19 2 42 9 52 14 10 6 25 10 34 10 9 0 23 7 31 15 9 8 28 15 43 15 38 0 107
25 152 54 19 13 71 38 115 55 118 47 172 118 141 184 -9 18 -14 43 -10 55 3
12 1 28 -5 35 -9 12 -8 119 2 136 3 4 -6 29 -19 54 -14 25 -25 60 -25 77 0 17
-7 44 -15 59 -13 26 -12 30 6 50 11 11 26 21 34 21 20 0 19 44 -1 65 -13 13
-29 15 -83 10 -36 -3 -70 -10 -75 -15 -6 -6 -27 -10 -48 -10 -22 0 -56 -9 -78
-20 -48 -25 -148 -28 -156 -5 -5 11 -11 12 -24 5 -13 -7 -21 -7 -25 0 -3 5
-14 10 -24 10 -10 0 -35 13 -55 29 -21 17 -44 27 -52 24 -8 -3 -21 -3 -29 1
-12 4 -13 11 -4 33 18 46 70 346 65 373 -2 13 2 54 9 90 21 101 18 183 -10
245 -26 60 -52 81 -111 91 -85 13 -131 -39 -133 -151 -1 -33 -4 -112 -7 -175
-9 -182 -9 -217 -4 -345 4 -102 3 -120 -10 -120 -8 0 -14 5 -13 10 1 6 -24 11
-57 11 -40 1 -64 7 -75 18 -21 20 -26 20 -64 -1 -27 -16 -31 -23 -29 -53 3
-33 5 -35 46 -41 24 -3 47 -10 50 -15 11 -15 61 -34 90 -34 16 0 33 -5 40 -12
8 -8 13 -1 18 31 4 27 10 38 15 30 4 -7 5 -17 2 -21 -2 -5 1 -16 8 -24 9 -11
9 -37 0 -117 -12 -111 -17 -360 -9 -419 7 -42 -6 -43 -16 -2 -11 44 -37 76
-51 64 -7 -6 -19 -9 -26 -8 -8 2 -15 -7 -17 -19 -2 -12 -12 -25 -23 -28 -10
-4 -19 -12 -19 -18 0 -7 -10 -17 -21 -22 -12 -6 -21 -13 -20 -17 0 -5 1 -24 1
-43 0 -28 5 -38 25 -47 22 -10 28 -7 58 25 18 21 38 37 43 37 5 0 17 9 27 20
28 33 50 15 44 -38 -8 -77 -28 -87 -162 -87 -128 0 -142 6 -150 66 -5 34 -5
286 -1 434 1 44 8 118 14 165 6 47 14 108 17 135 3 28 12 93 20 145 7 52 17
137 21 189 l7 95 24 -48 c19 -37 27 -45 37 -37 8 6 20 9 29 5 10 -3 18 2 23
18 4 13 15 29 25 36 11 7 19 19 19 26 0 8 10 20 22 28 21 14 22 17 9 56 -8 23
-17 42 -20 42 -3 0 -16 3 -28 6 -18 5 -23 2 -23 -12 0 -11 -14 -30 -31 -44
-17 -14 -38 -33 -47 -42 -26 -28 -34 -21 -26 20 4 20 8 53 9 72 6 79 16 176
21 198 6 29 41 317 48 395 3 31 8 67 11 80 2 12 7 50 9 85 3 34 10 71 16 81 5
11 6 22 2 25 -9 5 9 148 26 209 5 19 7 46 5 61 -3 14 -2 37 1 51 l7 26 37 -23
c20 -12 60 -41 89 -64 28 -23 62 -45 75 -49 13 -4 25 -11 28 -15 10 -13 115
-80 127 -80 7 0 16 -6 20 -13 13 -20 114 -93 172 -123 79 -42 83 -45 166 -110
83 -64 148 -126 180 -171 37 -52 97 -155 118 -202 20 -46 59 -91 78 -91 6 0 7
-6 1 -16 -5 -10 -3 -35 6 -67 24 -89 32 -141 23 -146 -13 -9 -20 -100 -7 -104
8 -3 7 -8 -1 -18 -16 -16 -17 -59 -2 -59 6 0 9 -7 5 -15 -3 -10 1 -15 11 -15
15 0 15 -1 1 -12 -24 -19 -32 -73 -15 -90 13 -11 13 -18 2 -48 -19 -51 -26
-100 -14 -100 6 0 5 -9 -2 -22 -7 -13 -14 -52 -16 -88 -2 -36 -6 -90 -9 -121
-4 -35 -2 -64 6 -78 11 -21 9 -21 -29 4 -33 22 -43 25 -61 15 -12 -7 -19 -18
-16 -26 3 -8 -4 -35 -15 -61 -19 -45 -19 -49 -4 -83 13 -28 22 -36 46 -38 26
-2 29 1 29 26 0 16 9 38 20 50 11 12 25 32 30 44 8 20 9 19 8 -12 -1 -55 13
-253 19 -263 10 -17 42 -200 37 -209 -3 -5 0 -16 7 -24 6 -8 17 -43 23 -77 11
-59 12 -62 43 -65 30 -3 31 -2 37 45 3 26 4 64 1 83 -3 19 -7 60 -9 90 -3 30
-10 82 -16 115 -11 59 -32 371 -30 452 0 23 5 77 11 120 6 43 10 89 10 102 -1
14 6 53 15 87 8 35 12 73 8 86 -10 33 -7 273 4 295 13 25 9 107 -9 168 -8 28
-12 61 -9 75 4 14 3 40 -1 58 -7 34 13 84 49 121 8 8 24 30 37 50 24 37 247
269 276 286 37 22 159 119 159 126 0 4 10 11 22 15 12 3 28 13 35 20 17 17
172 121 226 153 60 34 241 129 249 130 3 1 11 -23 17 -51z m-2001 -1909 c8
-12 19 -18 28 -15 8 3 14 1 14 -4 0 -6 10 -10 23 -10 13 0 28 -5 35 -12 8 -8
15 -8 24 0 9 7 18 7 31 -3 29 -21 129 -10 188 21 27 15 53 23 57 20 14 -14 40
-98 35 -112 -3 -8 7 -30 21 -49 15 -19 24 -35 21 -35 -3 0 -1 -9 6 -21 8 -15
8 -24 0 -32 -12 -12 -15 -67 -3 -67 7 0 10 -23 13 -102 1 -27 6 -38 18 -39 9
0 3 -5 -14 -11 -16 -6 -37 -17 -46 -24 -8 -8 -23 -14 -32 -14 -22 0 -67 -21
-67 -32 0 -4 -7 -8 -15 -8 -8 0 -15 -4 -15 -10 0 -5 -9 -10 -19 -10 -11 0 -22
-4 -25 -9 -4 -5 -32 -17 -64 -27 -31 -9 -68 -23 -82 -31 -14 -7 -57 -24 -96
-37 l-72 -23 -6 49 c-4 26 -9 110 -12 185 -4 127 -16 293 -30 420 -5 48 -4 52
18 56 45 8 53 7 66 -14z"/>
<path d="M11948 18085 c-9 -21 -8 -27 13 -44 13 -11 28 -20 33 -21 5 0 17 -6
25 -14 9 -8 32 -19 51 -25 75 -22 153 -51 166 -62 7 -6 18 -8 24 -4 5 3 10 1
10 -4 0 -6 9 -11 20 -11 11 0 41 -10 67 -22 l46 -22 18 23 c11 13 19 27 19 31
0 13 -85 57 -122 65 -18 3 -42 10 -53 15 -27 13 -101 39 -150 54 -48 15 -119
48 -123 59 -8 16 -33 6 -44 -18z"/>
<path d="M12910 17520 c-5 -9 -6 -27 -3 -39 5 -18 8 -19 21 -9 13 11 14 11 8
0 -5 -9 -1 -15 13 -19 13 -3 20 -12 18 -25 -2 -23 19 -36 26 -16 2 7 2 1 0
-14 -3 -21 2 -31 24 -45 15 -9 30 -20 33 -23 3 -3 34 -11 69 -18 57 -12 65
-11 82 4 31 28 22 42 -36 55 -51 11 -66 20 -115 61 -8 7 -20 12 -26 10 -8 -1
-10 5 -7 16 11 44 -86 101 -107 62z"/>
<path d="M14039 15313 c-8 -54 -13 -107 -13 -118 1 -11 4 -78 8 -150 7 -146
21 -244 40 -290 21 -49 48 -128 53 -155 3 -14 18 -42 34 -62 16 -20 29 -41 29
-47 0 -18 52 -71 70 -71 10 0 23 7 31 16 11 13 9 23 -12 62 -13 26 -36 60 -50
77 -15 17 -39 74 -58 135 -18 58 -37 114 -41 125 -24 58 -37 366 -20 476 14
88 10 99 -36 99 -19 0 -23 -9 -35 -97z"/>
<path d="M14438 14296 c-22 -16 -23 -49 -3 -70 8 -8 15 -19 15 -24 0 -9 28
-29 100 -70 14 -8 41 -18 60 -21 l35 -6 0 -87 c-1 -80 1 -87 20 -91 19 -4 19
-4 -2 -6 -18 -1 -20 -5 -14 -28 4 -15 14 -28 22 -31 11 -3 11 -2 -1 7 -12 9
-11 11 9 11 19 0 23 4 19 25 -3 14 -1 23 6 22 6 -1 11 36 13 104 4 122 4 121
-94 153 -28 9 -57 24 -63 32 -7 7 -18 14 -25 14 -7 0 -22 17 -32 38 -22 41
-39 48 -65 28z"/>
<path d="M14121 12234 c-12 -15 -21 -32 -21 -39 0 -6 -9 -22 -20 -35 -11 -12
-17 -27 -14 -31 3 -5 0 -9 -5 -9 -6 0 -11 -8 -11 -19 0 -17 -26 -82 -68 -171
-9 -19 -17 -39 -18 -45 -2 -20 -15 -51 -47 -113 l-32 -64 24 -19 c13 -10 27
-19 31 -19 9 0 71 98 74 117 1 7 5 16 9 19 4 4 7 17 7 29 0 12 7 30 15 41 8
10 15 26 15 34 0 8 11 38 24 67 14 28 26 62 28 75 2 13 20 56 41 97 41 82 44
96 21 105 -25 10 -31 7 -53 -20z"/>
<path d="M10561 11598 c-8 -18 -20 -41 -28 -50 -10 -11 -13 -27 -9 -45 7 -33
-16 -199 -31 -228 -6 -11 -9 -41 -6 -68 4 -29 2 -47 -5 -47 -6 0 -8 -16 -5
-40 3 -22 2 -40 -3 -40 -5 0 -9 -30 -9 -68 -1 -47 -6 -75 -19 -94 -11 -17 -16
-37 -12 -51 3 -13 1 -84 -4 -158 -6 -74 -7 -167 -4 -207 6 -65 8 -70 19 -48
20 38 34 220 21 272 -4 15 -3 23 3 20 10 -6 14 14 36 174 17 130 17 133 5 125
-6 -4 -10 9 -9 32 l1 38 13 -30 c14 -29 14 -27 15 41 0 39 5 96 11 125 12 60
17 106 24 192 2 33 9 84 15 115 12 67 12 72 2 72 -4 0 -13 -15 -21 -32z"/>
<path d="M13414 11121 c4 -5 -3 -7 -14 -4 -22 6 -26 -7 -9 -24 9 -9 7 -11 -8
-7 -15 4 -22 0 -26 -17 -5 -18 -9 -20 -20 -11 -11 9 -18 8 -31 -6 -9 -10 -14
-21 -11 -24 3 -2 -5 -4 -17 -4 -14 1 -29 -10 -43 -31 -11 -18 -26 -32 -32 -33
-7 0 -13 -7 -13 -15 0 -9 -11 -38 -25 -65 -19 -38 -23 -55 -16 -73 19 -50 51
-33 81 43 8 19 35 57 62 84 26 27 45 53 42 58 -3 5 0 9 7 7 26 -3 35 1 68 28
43 36 53 63 33 86 -16 17 -38 24 -28 8z"/>
<path d="M10396 10428 c-18 -115 -27 -285 -29 -495 -1 -134 -6 -243 -11 -243
-4 0 -5 -10 -1 -22 4 -13 11 -86 15 -163 4 -77 12 -151 19 -165 11 -24 11 -24
8 7 -2 18 0 30 4 27 4 -2 10 8 13 23 9 47 10 367 1 386 -4 11 -3 35 3 55 15
50 32 387 25 494 -5 78 -7 86 -20 70 -13 -15 -14 -13 -8 21 3 22 2 37 -4 37
-6 0 -12 -15 -15 -32z"/>
<path d="M9113 4811 c-28 -12 -33 -20 -33 -48 0 -34 -20 -84 -46 -114 -8 -8
-15 -31 -16 -51 -2 -20 -6 -34 -11 -31 -4 2 -14 -2 -21 -10 -13 -13 -11 -18
12 -40 15 -14 39 -29 54 -32 24 -6 29 -3 38 20 7 17 15 25 25 22 10 -5 16 6
21 41 4 26 13 59 20 74 8 15 14 36 14 47 0 11 6 26 13 33 25 24 26 55 3 76
-31 28 -38 29 -73 13z"/>
<path d="M10875 4809 c4 -5 0 -18 -9 -28 -16 -17 -16 -20 1 -37 10 -9 18 -20
18 -23 1 -3 5 -24 10 -46 5 -22 9 -44 9 -49 1 -6 16 -14 35 -19 56 -14 102 18
70 50 -6 6 -12 26 -15 44 -2 19 -7 44 -9 56 -3 12 0 25 6 29 7 4 -1 12 -21 20
-39 17 -104 19 -95 3z"/>
<path d="M11140 4491 c0 -7 -20 -32 -45 -58 -47 -47 -49 -52 -39 -101 10 -50
36 -49 89 3 26 25 54 45 62 45 13 0 14 8 9 41 -9 56 -25 84 -39 70 -7 -7 -14
-7 -24 0 -9 9 -13 8 -13 0z"/>
<path d="M9319 4447 c-10 -24 -10 -34 4 -56 15 -24 21 -26 94 -28 99 -2 145
-8 171 -22 28 -15 44 7 50 70 5 50 4 50 -22 45 -17 -3 -29 0 -32 8 -4 9 -38
12 -129 12 l-124 0 -12 -29z"/>
<path d="M10546 4441 c-37 -39 -33 -76 9 -77 17 0 54 -13 84 -29 l54 -28 41
43 c39 42 39 43 17 52 -12 4 -19 12 -16 18 6 10 6 11 -35 15 -27 4 -86 19
-110 29 -10 4 -26 -4 -44 -23z"/>
<path d="M8968 4278 c-33 -44 -25 -84 16 -81 16 1 46 -7 67 -17 21 -11 44 -20
50 -20 7 0 20 -7 30 -16 16 -14 19 -13 39 8 12 13 28 35 36 51 13 24 13 27 0
27 -9 0 -20 8 -25 19 -9 16 -45 27 -116 35 -11 1 -30 7 -42 14 -29 16 -27 17
-55 -20z"/>
<path d="M9595 4161 c-25 -5 -31 -12 -36 -43 -3 -20 -13 -48 -22 -62 -9 -14
-17 -32 -17 -41 0 -8 -4 -15 -9 -15 -11 0 -43 -79 -36 -90 3 -5 -4 -12 -15
-15 -17 -6 -19 -9 -9 -22 17 -20 64 -43 87 -43 13 0 22 9 26 26 4 16 12 24 20
21 10 -4 17 11 25 55 6 34 15 66 21 72 5 5 10 18 10 27 0 10 6 24 13 31 39 41
39 45 16 77 -24 32 -25 33 -74 22z"/>
<path d="M10391 4093 c-12 -13 -12 -19 -1 -37 17 -26 22 -126 9 -143 -8 -9 1
-17 30 -32 54 -28 91 -28 84 -1 -3 12 1 22 9 25 16 6 13 51 -3 60 -4 3 -6 12
-3 19 7 18 -23 108 -39 118 -21 13 -71 8 -86 -9z"/>
<path d="M10866 4065 c-15 -14 -33 -25 -40 -25 -6 0 -18 -6 -24 -12 -7 -7 -16
-13 -20 -14 -28 -3 -42 -19 -42 -48 0 -33 5 -43 32 -64 15 -12 22 -10 50 11
38 30 124 61 144 53 17 -7 20 58 4 99 -8 22 -13 24 -29 15 -13 -7 -22 -7 -26
0 -9 15 -20 12 -49 -15z"/>
<path d="M9925 3868 c-11 -6 -23 -17 -28 -24 -4 -7 -20 -15 -36 -19 -16 -3
-32 -12 -34 -19 -3 -7 -19 -16 -36 -19 -28 -6 -31 -10 -31 -42 0 -53 54 -98
77 -62 11 17 44 34 92 47 23 6 44 17 48 25 4 11 10 12 24 4 15 -8 19 -6 20 8
3 52 -16 125 -29 108 -10 -14 -34 -18 -41 -6 -4 6 -13 6 -26 -1z"/>
<path d="M10648 3638 c0 -7 -2 -17 -2 -23 -3 -21 -29 -75 -37 -75 -4 0 -11
-10 -15 -22 -3 -13 -13 -31 -22 -40 -13 -16 -11 -21 28 -60 42 -43 43 -43 53
-20 6 13 16 21 23 18 13 -5 17 4 29 62 4 17 11 32 16 32 6 0 7 9 4 20 -4 13
-1 22 9 26 40 16 -6 94 -55 94 -16 0 -30 -6 -31 -12z"/>
<path d="M10874 3509 c-23 -6 -34 -17 -39 -36 -4 -18 -2 -29 6 -32 17 -5 67
-54 68 -66 0 -5 8 -18 16 -28 8 -9 15 -24 15 -32 0 -17 28 -13 89 11 28 12 31
17 21 29 -6 8 -9 23 -5 34 5 16 1 22 -19 27 -14 3 -26 9 -26 13 0 11 -77 91
-87 90 -4 0 -22 -5 -39 -10z"/>
<path d="M9414 3439 c-23 -14 -31 -26 -30 -47 1 -19 6 -27 18 -27 17 0 57 -28
100 -68 16 -15 21 -16 46 -3 34 17 83 69 62 64 -9 -2 -14 4 -14 15 1 12 -7 20
-27 24 -16 3 -34 12 -40 19 -6 8 -18 14 -26 14 -8 0 -21 7 -29 15 -19 18 -21
18 -60 -6z"/>
<path d="M10374 3365 c-6 -16 -55 -41 -89 -47 -13 -2 -23 -16 -31 -43 -9 -34
-8 -42 8 -59 17 -19 20 -19 46 -4 16 10 44 20 63 23 19 3 38 10 43 15 5 5 15
6 22 3 10 -4 14 4 13 28 -1 47 -13 84 -26 84 -6 0 -15 3 -19 8 -12 11 -24 8
-30 -8z"/>
<path d="M8797 3041 c-17 -18 -15 -51 4 -51 5 0 9 -10 9 -23 0 -13 3 -27 7
-30 6 -7 10 -28 16 -84 2 -19 8 -23 33 -23 17 0 46 3 63 6 25 5 30 10 26 25
-4 11 -2 19 5 19 6 0 2 13 -9 29 -23 32 -43 77 -46 104 -2 21 -22 37 -47 37
-9 0 -22 2 -30 4 -7 3 -21 -3 -31 -13z"/>
<path d="M10560 3012 c-47 -5 -98 -52 -57 -52 16 0 33 -34 43 -85 7 -38 23
-49 88 -62 26 -6 29 -4 24 15 -4 14 -1 25 9 31 12 6 13 12 4 30 -7 11 -15 21
-19 21 -4 0 -8 8 -9 18 -1 11 -12 34 -25 53 -20 29 -28 34 -58 31z"/>
<path d="M11060 2891 c0 -9 -8 -11 -24 -7 -18 4 -26 1 -30 -12 -3 -10 -25 -38
-49 -63 -40 -42 -42 -48 -34 -80 10 -39 14 -44 45 -54 14 -4 22 -2 22 5 0 15
46 71 52 64 3 -2 13 5 23 16 10 11 24 20 32 20 10 0 12 8 7 28 -9 35 -43 101
-44 83z"/>
<path d="M11705 2604 c-14 -21 -105 -33 -105 -13 0 21 -46 -63 -52 -95 -5 -24
-3 -27 14 -23 11 3 21 0 25 -9 7 -18 22 -18 59 0 16 7 48 22 72 32 46 19 54
45 29 93 -15 31 -29 36 -42 15z"/>
<path d="M10537 2589 c-14 -10 -34 -19 -45 -19 -11 0 -25 -6 -32 -14 -6 -8
-21 -16 -33 -18 -28 -4 -35 -59 -12 -94 19 -29 32 -30 53 -4 10 12 34 23 56
25 22 3 45 10 53 16 9 8 13 8 13 0 0 -6 5 -11 11 -11 13 0 39 62 39 95 0 22
-3 25 -25 19 -14 -3 -25 -2 -25 4 0 20 -29 21 -53 1z"/>
<path d="M9930 2400 c0 -22 -27 -81 -41 -90 -4 -3 -19 -22 -32 -42 -24 -35
-24 -37 -7 -62 9 -15 27 -34 40 -43 21 -15 23 -15 32 1 5 9 15 16 22 16 15 0
26 21 26 50 0 9 7 23 15 30 8 7 15 19 15 27 0 8 9 27 19 42 20 27 20 27 -5 59
-31 39 -84 46 -84 12z"/>
<path d="M10792 2204 c-28 -20 -28 -37 2 -69 27 -29 60 -120 51 -142 -4 -13 4
-15 50 -11 63 5 85 19 66 42 -10 11 -9 16 4 23 13 8 12 12 -7 33 -24 25 -50
67 -69 113 -9 21 -17 27 -43 27 -17 0 -42 -7 -54 -16z"/>
<path d="M9404 2060 c-40 -26 -43 -73 -4 -78 14 -2 39 -18 57 -35 71 -71 66
-68 98 -48 17 10 38 27 48 38 16 19 16 21 1 27 -9 4 -14 12 -10 21 4 11 -3 17
-24 21 -16 4 -37 15 -46 25 -9 11 -23 19 -31 19 -8 0 -21 7 -29 15 -19 19 -23
19 -60 -5z"/>
<path d="M10209 2034 c-13 -21 -18 -39 -12 -43 5 -3 12 -14 16 -24 5 -14 14
-16 45 -11 26 4 51 1 73 -9 19 -9 48 -17 64 -19 17 -2 35 -11 41 -22 10 -16
14 -13 38 35 33 66 33 79 0 79 -19 0 -25 4 -20 15 4 13 -4 16 -47 16 -81 0
-115 3 -123 12 -19 19 -53 6 -75 -29z"/>
<path d="M9786 1804 c-21 -21 -20 -33 7 -59 36 -37 47 -53 47 -69 0 -7 7 -16
15 -20 8 -3 15 -15 15 -27 0 -15 4 -19 16 -15 9 3 21 6 27 6 25 0 78 40 70 53
-4 6 -8 19 -8 27 0 8 -10 19 -23 25 -12 5 -25 18 -28 27 -3 10 -10 18 -15 18
-5 0 -14 11 -19 25 -8 21 -16 25 -49 25 -23 0 -46 -7 -55 -16z"/>
<path d="M10693 1673 c-17 -3 -23 -11 -23 -30 0 -26 -49 -123 -62 -123 -15 0
-7 -25 16 -51 25 -29 74 -60 61 -39 -4 7 1 13 13 17 15 3 26 22 38 62 10 31
24 67 31 81 11 21 9 28 -11 54 -25 33 -30 35 -63 29z"/>
<path d="M16075 15853 c-11 -2 -27 -7 -35 -10 -43 -17 -325 -19 -344 -3 -24
19 -46 5 -46 -29 0 -27 4 -31 38 -36 20 -4 48 -11 62 -15 33 -12 253 -5 313
10 27 7 68 10 94 6 52 -7 73 4 73 40 0 16 -7 25 -22 28 -43 9 -113 14 -133 9z"/>
<path d="M3634 13219 c3 -17 22 -53 41 -79 19 -26 35 -58 35 -71 0 -13 7 -33
15 -43 8 -11 15 -30 15 -43 0 -13 5 -23 10 -23 6 0 10 -7 10 -15 0 -8 -5 -15
-11 -15 -15 0 -1 -97 19 -132 16 -28 55 -38 67 -18 3 6 1 10 -5 10 -7 0 -8 6
0 19 14 27 13 30 -11 24 -19 -5 -20 -4 -8 15 11 17 10 23 -2 38 -11 13 -11 18
-1 21 6 3 12 17 12 32 0 15 -6 33 -12 40 -11 11 -10 12 1 6 10 -6 12 -1 6 26
-4 19 -13 46 -21 60 -7 15 -10 29 -7 33 4 3 -5 19 -19 34 -14 15 -37 46 -52
70 -22 35 -32 42 -57 42 -30 0 -31 -2 -25 -31z"/>
<path d="M16200 12437 c0 -15 -51 -56 -92 -74 -22 -9 -26 -17 -25 -45 1 -20
-5 -40 -15 -50 -10 -10 -18 -25 -18 -33 0 -8 -4 -15 -9 -15 -6 0 -10 -8 -10
-17 -3 -127 0 -145 30 -208 11 -21 69 -55 95 -55 8 0 17 -6 20 -14 4 -10 19
-13 52 -11 95 6 122 23 163 100 25 47 24 49 -23 123 -16 26 -18 36 -8 42 14 8
5 70 -10 70 -5 0 -14 19 -20 43 -6 23 -15 51 -20 62 -5 11 -11 37 -15 58 -6
36 -7 37 -50 37 -31 0 -45 -4 -45 -13z m20 -141 c7 -32 6 -36 -11 -36 -10 0
-19 -2 -19 -5 0 -8 24 -48 38 -63 19 -21 34 -52 24 -52 -4 0 -8 -9 -9 -20 -1
-15 7 -21 33 -26 19 -3 34 -9 34 -12 0 -9 -71 -72 -81 -72 -5 0 -9 5 -9 10 0
6 -11 10 -25 10 -14 0 -34 9 -46 21 -17 17 -19 28 -14 62 4 23 15 49 26 59 22
19 24 40 7 68 -11 17 -10 22 0 29 8 4 12 15 10 22 -3 14 23 51 30 44 2 -2 7
-20 12 -39z"/>
<path d="M16552 12065 c-16 -34 -15 -60 2 -74 14 -12 26 -65 32 -145 2 -27 8
-54 14 -61 5 -6 7 -15 3 -18 -3 -4 0 -7 8 -7 9 0 10 -3 3 -8 -6 -4 -14 -17
-18 -29 -7 -22 -5 -23 46 -23 55 0 103 22 83 37 -15 12 -19 63 -5 63 15 0 5
48 -14 70 -8 8 -16 35 -20 60 -4 24 -11 49 -17 56 -9 11 -15 38 -18 87 -1 13
-10 17 -44 17 -37 0 -46 -4 -55 -25z"/>
<path d="M4003 11922 c-9 -6 -10 -17 -4 -38 17 -58 60 -144 85 -169 13 -13 28
-35 32 -47 4 -13 21 -41 39 -63 18 -22 40 -53 48 -70 9 -16 35 -50 57 -73 22
-24 40 -52 40 -61 0 -10 11 -28 24 -40 13 -13 27 -34 30 -47 7 -27 37 -32 56
-10 11 14 -2 55 -40 119 -22 37 -30 52 -36 65 -4 7 -18 25 -33 40 -14 15 -34
41 -43 57 -24 42 -41 67 -54 81 -6 7 -17 26 -24 43 -7 17 -16 31 -21 31 -5 0
-9 7 -9 15 0 7 -6 18 -13 22 -12 8 -48 75 -67 126 -10 27 -40 36 -67 19z"/>
<path d="M16251 11365 c-22 -32 -22 -36 -8 -59 9 -13 17 -42 20 -65 2 -22 6
-44 10 -48 4 -3 7 -20 7 -36 0 -28 28 -87 41 -87 3 0 4 -11 1 -25 -3 -20 0
-25 17 -25 27 0 73 23 91 45 12 15 12 18 -3 26 -19 11 -23 39 -7 39 13 0 -7
42 -26 53 -7 4 -16 28 -20 52 -3 25 -10 48 -15 51 -5 3 -7 24 -4 48 5 40 4 42
-28 54 -47 17 -49 16 -76 -23z"/>
<path d="M16673 11153 c-17 -36 -16 -68 1 -82 18 -15 30 -78 35 -173 0 -15 7
-33 15 -41 8 -8 11 -18 6 -23 -4 -5 -11 -19 -14 -30 -6 -20 -3 -21 50 -20 43
1 59 6 70 21 9 12 11 21 4 23 -14 5 -13 52 1 52 14 0 4 57 -14 78 -11 14 -27
66 -47 160 -13 59 -16 62 -58 62 -30 0 -39 -5 -49 -27z"/>
<path d="M17063 10728 c-17 -25 -20 -36 -12 -57 6 -14 8 -69 5 -123 -4 -71 -2
-98 7 -98 6 0 1 -7 -11 -16 -12 -8 -22 -19 -22 -23 0 -14 50 -31 91 -31 39 0
40 1 38 28 -2 17 3 36 14 46 20 21 20 17 6 53 -6 15 -11 72 -12 126 -2 104 -4
108 -57 120 -20 5 -29 0 -47 -25z"/>
<path d="M16640 9921 c0 -5 -11 -21 -25 -35 -21 -21 -23 -29 -15 -52 6 -15 13
-65 17 -113 3 -47 11 -102 18 -121 7 -20 9 -44 4 -55 -13 -33 -11 -35 35 -35
58 0 94 27 77 58 -9 17 -9 26 1 42 11 16 9 26 -7 56 -18 34 -23 67 -28 182 -2
55 -7 62 -54 76 -14 4 -23 3 -23 -3z"/>
<path d="M16210 8990 c0 -6 -9 -24 -21 -39 -18 -25 -19 -32 -8 -52 9 -16 13
-64 12 -144 0 -70 4 -123 10 -126 6 -4 1 -16 -12 -30 -11 -12 -21 -26 -21 -30
0 -3 19 -11 42 -17 63 -16 94 1 90 51 -2 20 1 37 6 37 16 0 22 40 10 69 -11
25 -18 99 -21 213 -1 54 -3 58 -31 68 -37 13 -56 13 -56 0z"/>
<path d="M16463 8587 c-23 -23 -31 -61 -14 -71 8 -5 14 -69 12 -131 -1 -40 18
-95 32 -95 9 0 9 -2 1 -8 -6 -4 -14 -17 -18 -28 -6 -20 -3 -21 38 -19 72 5 82
15 80 77 -1 29 -7 67 -12 83 -19 55 -29 134 -18 140 7 3 7 7 -2 11 -10 4 -10
9 -2 19 9 11 5 17 -19 29 -39 21 -51 19 -78 -7z"/>
<path d="M16722 7073 c1 -4 -6 -20 -16 -35 -16 -25 -16 -29 -2 -60 11 -23 17
-68 19 -141 2 -78 6 -110 16 -116 11 -7 11 -10 -1 -17 -9 -5 -18 -19 -22 -31
-6 -19 -2 -23 28 -28 43 -9 93 2 100 21 3 8 2 14 -2 14 -13 0 -8 50 5 58 12 8
10 49 -4 82 -7 18 -24 131 -25 178 -1 17 -4 32 -8 32 -4 0 -6 10 -6 23 1 19
-5 22 -42 25 -23 2 -41 0 -40 -5z"/>
<path d="M16087 5438 c-6 -4 -8 -8 -4 -8 5 0 1 -10 -7 -22 -20 -28 -20 -47 0
-69 8 -9 21 -54 29 -100 7 -46 18 -96 23 -110 6 -15 7 -31 1 -40 -19 -30 -10
-39 39 -39 63 1 86 18 72 55 -7 20 -7 31 1 41 13 16 4 60 -16 81 -13 12 -16
30 -15 68 0 3 -7 19 -15 36 -9 16 -15 38 -14 47 3 39 -12 60 -47 64 -19 2 -40
0 -47 -4z"/>
<path d="M8691 4853 c-7 -27 -17 -66 -24 -88 -15 -52 -17 -101 -19 -390 l-2
-239 32 -7 c45 -9 44 -13 44 316 0 234 11 380 29 391 5 3 9 16 9 28 0 21 -21
35 -51 36 -4 0 -12 -21 -18 -47z"/>
<path d="M14515 4100 c-3 -5 -15 -10 -26 -10 -28 0 -22 -44 6 -48 19 -3 20 -9
16 -87 -4 -114 19 -215 78 -340 49 -103 137 -228 213 -302 74 -73 167 -144
369 -281 316 -214 495 -383 636 -599 59 -91 163 -298 163 -326 0 -41 33 -174
50 -204 45 -77 59 -364 23 -468 -12 -33 -24 -82 -28 -110 -12 -89 -14 -90 -52
-15 -49 99 -180 235 -271 283 -83 44 -167 67 -243 67 -65 0 -189 -35 -188 -53
0 -7 22 -29 49 -49 61 -47 95 -116 115 -240 18 -104 56 -196 104 -251 76 -86
235 -128 357 -92 32 9 64 21 70 26 7 6 10 -41 10 -164 -1 -142 2 -181 17 -224
19 -55 43 -69 51 -30 3 12 8 58 11 102 12 156 44 358 60 375 8 9 15 26 15 37
0 12 5 23 11 25 6 2 13 21 15 43 3 22 9 51 15 65 12 32 19 93 24 207 3 91 3
93 -20 93 -22 0 -23 5 -30 93 -7 110 -30 253 -51 322 -16 55 -18 245 -3 245
16 0 59 51 65 77 4 13 10 23 15 23 5 0 9 12 8 28 -1 15 1 45 5 68 5 31 4 44
-8 54 -26 20 -19 35 42 98 104 107 234 179 437 241 148 45 161 46 231 17 149
-61 359 -72 488 -27 161 57 284 192 316 345 13 66 6 146 -14 146 -10 0 -15
-23 -18 -79 -6 -103 -40 -174 -124 -259 -130 -130 -307 -170 -517 -116 -124
32 -124 32 3 65 291 75 445 145 558 254 43 40 74 76 70 80 -14 14 -159 27
-308 27 -128 1 -169 -3 -233 -20 -183 -50 -306 -158 -356 -313 -11 -35 -14
-37 -99 -59 -185 -48 -309 -105 -455 -209 -107 -78 -135 -106 -163 -166 -20
-45 -29 -73 -49 -169 -6 -27 -8 -25 -50 48 -137 241 -370 482 -675 698 -166
117 -332 243 -353 266 -18 20 -18 22 3 81 19 51 22 75 18 154 -3 85 -8 103
-41 170 -43 87 -141 198 -247 278 -62 48 -68 55 -55 69 21 23 19 37 -7 44 -33
8 -46 7 -53 -4z m112 -172 c84 -64 180 -174 215 -245 40 -83 50 -195 23 -258
l-18 -40 -7 50 c-9 59 -39 138 -76 197 -30 48 -73 98 -86 98 -16 0 -7 -25 31
-84 42 -65 75 -141 90 -208 l9 -40 -24 23 c-37 35 -122 161 -154 231 -16 35
-39 99 -50 142 -19 76 -27 176 -13 176 3 0 30 -19 60 -42z m2868 -756 l40 -8
-45 -42 c-102 -96 -337 -181 -652 -238 -45 -8 -49 5 -18 65 54 107 212 204
365 224 53 7 269 6 310 -1z m-1892 -1610 c76 -38 147 -99 147 -127 0 -10 19
-44 43 -74 24 -31 63 -85 87 -121 23 -36 52 -75 63 -87 27 -31 18 -29 -61 11
-95 48 -164 106 -234 198 -69 91 -108 120 -157 116 -39 -3 -56 -28 -19 -28 39
0 83 -35 143 -114 78 -104 154 -169 257 -221 65 -33 84 -46 74 -54 -30 -25
-95 -43 -151 -43 -169 0 -285 114 -328 322 -20 98 -52 183 -82 219 -14 15 -21
32 -17 36 4 4 43 5 87 3 67 -2 92 -9 148 -36z"/>
<path d="M14394 4009 c-3 -6 -1 -22 5 -37 16 -41 10 -106 -12 -114 -10 -4 -16
-11 -13 -16 2 -4 1 -14 -4 -22 -13 -20 7 -40 40 -40 25 0 28 3 26 30 -2 22 2
29 11 26 29 -12 49 71 27 113 -8 14 -14 31 -14 38 0 15 -58 35 -66 22z"/>
<path d="M16770 3937 c0 -7 -9 -18 -20 -25 -21 -13 -27 -56 -10 -67 9 -6 7
-124 -4 -173 -3 -13 -1 -34 4 -46 7 -18 4 -29 -11 -44 -10 -12 -19 -23 -19
-26 0 -8 63 -26 91 -26 32 0 42 13 43 55 1 20 6 29 15 27 10 -2 12 7 7 40 -4
24 -8 94 -10 157 l-3 115 -34 12 c-44 16 -49 16 -49 1z"/>
<path d="M14547 3422 c-10 -10 -17 -23 -17 -29 0 -16 43 -51 73 -58 15 -4 27
-11 27 -16 0 -5 6 -9 13 -9 8 0 24 -9 37 -20 13 -11 29 -20 36 -20 7 0 26 -13
42 -30 36 -35 47 -37 62 -10 11 21 -1 60 -19 60 -5 0 -11 9 -14 20 -3 12 -14
20 -26 20 -12 0 -21 4 -21 8 0 5 -28 23 -62 41 -35 19 -70 40 -79 47 -21 19
-33 18 -52 -4z"/>
<path d="M8516 3207 c3 -8 -2 -17 -10 -20 -22 -8 -20 -27 2 -27 16 -1 16 -1
-1 -11 -12 -7 -17 -20 -15 -37 2 -18 -2 -27 -11 -27 -8 0 -18 -12 -22 -27 -5
-18 -3 -28 4 -28 6 0 2 -6 -8 -14 -33 -24 -37 -134 -8 -225 26 -82 37 -101 62
-101 30 0 44 16 33 36 -14 28 -36 115 -35 144 2 121 8 169 24 173 19 5 30 48
32 122 2 48 1 50 -25 53 -21 3 -26 0 -22 -11z"/>
<path d="M10939 856 c-2 -2 -35 -6 -74 -9 -80 -6 -160 -24 -191 -44 -12 -8
-41 -39 -65 -69 -24 -31 -61 -74 -81 -97 -21 -23 -40 -54 -44 -70 -6 -30 -44
-77 -62 -77 -14 0 -2 -42 17 -57 12 -9 12 -12 3 -13 -9 0 -12 -11 -10 -32 3
-31 6 -33 48 -39 47 -7 113 -24 219 -58 94 -31 263 -55 461 -67 86 -5 137 -1
280 21 96 15 209 31 250 35 41 5 104 15 140 24 36 9 80 16 99 16 19 0 102 13
185 29 83 17 198 36 256 43 162 20 480 17 720 -7 50 -5 405 -20 460 -19 19 0
87 2 150 3 263 8 586 85 521 125 -4 3 -23 1 -42 -4 -75 -22 -181 -41 -324 -56
-131 -15 -183 -15 -410 -5 -143 6 -357 19 -475 28 -274 21 -463 19 -660 -8
-155 -20 -217 -31 -267 -45 -29 -8 -85 -16 -125 -18 -40 -2 -95 -11 -123 -20
-27 -9 -86 -19 -129 -21 -43 -3 -86 -10 -95 -14 -9 -5 -54 -11 -101 -15 -47
-3 -101 -10 -120 -16 -45 -13 -143 -13 -250 1 -47 6 -123 14 -170 19 -47 4
-116 17 -155 28 -72 21 -72 20 10 27 11 1 31 7 45 12 14 6 77 13 140 16 63 4
132 11 154 17 40 12 64 18 106 26 45 8 49 12 55 57 8 54 -16 140 -54 187 -57
72 -119 130 -139 130 -12 0 -44 9 -72 20 -50 20 -72 24 -81 16z"/>
<path d="M9709 758 c-13 -5 -33 -18 -44 -28 -11 -10 -34 -32 -52 -49 -18 -17
-36 -31 -41 -31 -11 0 -52 -47 -52 -60 0 -6 -4 -10 -10 -10 -5 0 -10 -6 -10
-14 0 -8 -13 -27 -30 -43 -16 -15 -30 -33 -30 -39 0 -17 24 -34 52 -36 18 -1
31 -13 43 -35 22 -41 53 -61 102 -68 21 -3 61 -10 88 -15 55 -11 90 -11 275
-6 134 3 182 17 244 68 25 21 30 33 33 83 3 57 3 58 -39 94 -23 20 -65 60 -93
89 -34 35 -59 52 -75 52 -14 0 -40 9 -59 21 -18 11 -45 19 -60 18 -14 -1 -37
1 -51 5 -40 11 -165 13 -191 4z"/>
<path d="M17797 674 c-11 -11 -177 -32 -225 -28 -24 1 -66 -3 -95 -11 -50 -13
-209 -32 -272 -32 -16 0 -92 -3 -168 -7 -79 -4 -160 -3 -191 3 -29 5 -175 13
-324 17 -270 7 -272 7 -272 -13 0 -23 -7 -22 265 -43 72 -5 195 -15 274 -21
155 -12 273 -13 416 -4 50 3 117 8 150 10 33 1 79 8 103 14 23 7 103 14 178
16 161 6 189 15 189 64 0 33 -13 49 -28 35z"/>
<path d="M15405 497 c-28 -13 -86 -50 -130 -81 -44 -32 -109 -71 -145 -89 -61
-29 -72 -31 -170 -31 -58 1 -143 7 -190 14 -133 21 -315 19 -372 -4 -47 -18
-62 -41 -34 -52 8 -3 25 0 38 7 36 19 190 18 323 -4 162 -26 277 -32 345 -17
51 11 188 72 200 89 3 4 44 33 91 64 56 37 96 57 115 57 36 0 95 -27 160 -72
46 -32 105 -58 133 -58 6 0 24 -9 39 -20 18 -14 46 -21 85 -23 31 -1 57 -5 57
-8 0 -10 137 -13 345 -9 117 3 275 -9 373 -27 86 -16 95 -16 120 -1 35 22 40
45 10 57 -78 31 -455 54 -615 38 -123 -13 -281 4 -358 38 -27 12 -61 25 -75
28 -14 3 -54 26 -90 50 -115 76 -178 90 -255 54z"/>
<path d="M8598 416 c-25 -6 -280 -9 -598 -8 -305 2 -583 0 -617 -3 -53 -6 -63
-10 -63 -26 0 -16 8 -19 58 -20 184 -2 439 -10 517 -16 107 -8 455 -8 610 1
61 3 133 6 160 6 28 0 106 0 175 0 132 0 147 5 152 49 l3 23 -177 1 c-97 1
-196 -2 -220 -7z"/>
</g>
</svg>
